<svg width="1188" height="387" viewBox="0 0 1188 387" fill="none" xmlns="http://www.w3.org/2000/svg">
<path d="M82.3118 4V2.30533H80.6172H62.1378H60.4431V4V175.605V177.299H62.1378H80.6172H82.3118V175.605V4Z" fill="#E5E5E5" stroke="#E5E5E5" stroke-width="3.38933"/>
<path d="M117.394 177.299H119.089V175.605V61.554L162.983 176.211L163.399 177.299H164.565H184.382H186.845L185.965 174.999L167.474 126.67L192.353 61.569V175.605V177.299H194.048H212.588H214.282V175.605V4V2.30533H212.588H194.048H192.771H191.605L191.188 3.39452L155.75 96.035L120.253 3.39365L119.836 2.30533H118.67H117.394H98.8535H97.1588V4V175.605V177.299H98.8535H117.394Z" fill="#E5E5E5" stroke="#E5E5E5" stroke-width="3.38933"/>
<path d="M249.365 177.299H251.059V175.605V61.554L294.953 176.211L295.37 177.299H296.536H316.353H318.816L317.936 174.999L299.444 126.67L324.323 61.569V175.605V177.299H326.018H344.558H346.253V175.605V4V2.30533H344.558H326.018H324.742H323.575L323.159 3.39452L287.72 96.035L252.224 3.39365L251.807 2.30533H250.641H249.365H230.824H229.129V4V175.605V177.299H230.824H249.365Z" fill="#E5E5E5" stroke="#E5E5E5" stroke-width="3.38933"/>
<path d="M361.1 175.605V177.299H362.795H377.08H381.275H424.313H426.007V175.605V157.125V155.43H424.313H382.969V86.3255L396.914 100.271L397.411 100.767H398.113H424.313H428.408L425.51 97.8734L382.969 55.3927V24.2349H424.313H426.007V22.5403V4V2.30533H424.313H381.275H377.08H362.795H361.1V4V175.605Z" fill="#E5E5E5" stroke="#E5E5E5" stroke-width="3.38933"/>
<path d="M498.019 100.889H506.316H512.455H524.795H526.49V99.1938V80.7144V36.3389V35.6369L525.993 35.1406L493.654 2.80168L493.158 2.30533H492.456H461.028H452.883H452.336H442.549H440.854V4V175.726V177.421H442.549H461.028H462.723V175.726V100.889H474.573L503.456 176.332L503.873 177.421H505.039H524.856H527.319L526.438 175.12L498.019 100.889ZM504.621 79.0198H462.723V24.2349H484.094L504.621 44.761V79.0198Z" fill="#E5E5E5" stroke="#E5E5E5" stroke-width="3.38933"/>
<path d="M604.131 155.43H543.092H541.398V157.125V175.605V177.299H543.092H605.826H624.305H626V175.605V157.125V143.509V120.774V117.37V116.668L625.504 116.172L563.327 53.935V24.2349H583.605L596.968 37.5984L597.464 38.0948H598.166H624.305H628.391L625.504 35.2029L593.165 2.80282L592.669 2.30533H591.966H544.065H543.092H541.398V4V36.1571V58.5879V62.2959V62.9978L541.894 63.4942L604.131 125.731V155.43Z" fill="#E5E5E5" stroke="#E5E5E5" stroke-width="3.38933"/>
<path d="M662.715 4V2.30533H661.021H642.541H640.847V4V175.605V177.299H642.541H661.021H662.715V175.605V4Z" fill="#E5E5E5" stroke="#E5E5E5" stroke-width="3.38933"/>
<path d="M699.877 3.63164L699.582 2.30533H698.223H679.257H677.143L677.603 4.36856L715.839 175.973L716.134 177.299H717.493H717.979H736.459H736.945H738.304L738.599 175.973L776.835 4.36856L777.295 2.30533H775.181H756.215H754.856L754.561 3.63164L727.219 126.412L699.877 3.63164Z" fill="#E5E5E5" stroke="#E5E5E5" stroke-width="3.38933"/>
<path d="M791.723 175.605V177.299H793.417H807.702H811.897H854.935H856.63V175.605V157.125V155.43H854.935H813.592V86.3255L827.537 100.271L828.033 100.767H828.735H854.935H859.03L856.132 97.8734L813.592 55.3927V24.2349H854.935H856.63V22.5403V4V2.30533H854.935H811.897H807.702H793.417H791.723V4V175.605Z" fill="#E5E5E5" stroke="#E5E5E5" stroke-width="3.38933"/>
<path d="M1.68111 5.54465L3.74182 3.48394H9.8155L11.8762 5.54465V18.397L9.8155 20.4577H3.74182L1.68111 18.397V5.54465ZM10.412 7.06307L9.2461 5.19216H4.50103L3.38933 6.30386V14.0858L10.412 7.06307ZM9.40878 18.7495L10.2493 16.3905L9.73416 10.1813L3.22664 16.8786L4.31123 18.7495H9.40878ZM15.2384 5.54465L17.2991 3.48394H23.3728L25.4335 5.54465V18.397L23.3728 20.4577H17.2991L15.2384 18.397V5.54465ZM23.9693 7.06307L22.8034 5.19216H18.0584L16.9467 6.30386V14.0858L23.9693 7.06307ZM22.9661 18.7495L23.8067 16.3905L23.2915 10.1813L16.784 16.8786L17.8686 18.7495H22.9661ZM30.504 6.62924L33.2968 3.48394H34.7339V18.7495H37.2826V20.4577H30.504V18.7495H33.0528V6.98173L30.504 7.90362V6.62924Z" fill="white" fill-opacity="0.3"/>
<path d="M396.682 384.601H398.92V382.363V280.98L438.039 383.163L438.589 384.601H440.129H458.382H461.634L460.472 381.563L443.533 337.291L465.046 281V382.363V384.601H467.284H484.36H486.599V382.363V224.306V222.067H484.36H467.284H466.108H464.568L464.018 223.506L432.009 307.18L399.948 223.505L399.397 222.067H397.858H396.682H379.605H377.367V224.306V382.363V384.601H379.605H396.682Z" fill="#E5E5E5" stroke="#E5E5E5" stroke-width="4.47648"/>
<path d="M498.919 382.363V384.601H501.157H514.315H518.178H557.818H560.056V382.363V365.342V363.104H557.818H520.416V301.767L532.104 313.455L532.76 314.111H533.687H557.818H563.227L559.4 310.289L520.416 271.36V243.62H557.818H560.056V241.382V224.306V222.067H557.818H518.178H514.315H501.157H498.919V224.306V382.363Z" fill="#E5E5E5" stroke="#E5E5E5" stroke-width="4.47648"/>
<path d="M648.8 243.62H651.038V241.382V224.306V222.067H648.8H574.615H572.376V224.306V241.382V243.62H574.615H600.931V382.363V384.601H603.169H620.246H622.484V382.363V243.62H648.8Z" fill="#E5E5E5" stroke="#E5E5E5" stroke-width="4.47648"/>
<path d="M685.006 382.642L695.017 303.083L725.956 334.021L732.075 382.642L732.321 384.601H734.295H751.484H754.021L753.705 382.083L733.829 224.026L733.582 222.067H731.608H726.177H714.419H702.606H689.504H685.473H683.499L683.252 224.026L663.376 382.083L663.059 384.601H665.597H682.785H684.76L685.006 382.642ZM715.61 293.269L714.954 292.614H714.027H696.352L702.509 243.62H714.573L721.573 299.232L715.61 293.269Z" fill="#E5E5E5" stroke="#E5E5E5" stroke-width="4.47648"/>
<path d="M787.54 224.306V222.067H785.302H768.281H766.042V224.306V352.577V353.504L766.698 354.159L796.484 383.945L797.14 384.601H798.067H798.102H798.137H798.172H798.207H798.242H798.277H798.313H798.348H798.383H798.418H798.453H798.488H798.523H798.558H798.593H798.629H798.664H798.699H798.734H798.769H798.804H798.839H798.874H798.91H798.945H798.98H799.015H799.05H799.085H799.12H799.156H799.191H799.226H799.261H799.296H799.331H799.366H799.402H799.437H799.472H799.507H799.542H799.577H799.612H799.648H799.683H799.718H799.753H799.788H799.823H799.859H799.894H799.929H799.964H799.999H800.034H800.07H800.105H800.14H800.175H800.21H800.245H800.281H800.316H800.351H800.386H800.421H800.456H800.492H800.527H800.562H800.597H800.632H800.668H800.703H800.738H800.773H800.808H800.843H800.879H800.914H800.949H800.984H801.019H801.055H801.09H801.125H801.16H801.195H801.231H801.266H801.301H801.336H801.371H801.407H801.442H801.477H801.512H801.547H801.583H801.618H801.653H801.688H801.723H801.759H801.794H801.829H801.864H801.9H801.935H801.97H802.005H802.04H802.076H802.111H802.146H802.181H802.216H802.252H802.287H802.322H802.357H802.393H802.428H802.463H802.498H802.533H802.569H802.604H802.639H802.674H802.71H802.745H802.78H802.815H802.851H802.886H802.921H802.956H802.991H803.027H803.062H803.097H803.132H803.168H803.203H803.238H803.273H803.309H803.344H803.379H803.414H803.45H803.485H803.52H803.555H803.59H803.626H803.661H803.696H803.731H803.767H803.802H803.837H803.872H803.908H803.943H803.978H804.013H804.049H804.084H804.119H804.154H804.19H804.225H804.26H804.295H804.331H804.366H804.401H804.436H804.472H804.507H804.542H804.577H804.613H804.648H804.683H804.718H804.754H804.789H804.824H804.86H804.895H804.93H804.965H805.001H805.036H805.071H805.106H805.142H805.177H805.212H805.247H805.283H805.318H805.353H805.388H805.424H805.459H805.494H805.529H805.565H805.6H805.635H805.67H805.706H805.741H805.776H805.812H805.847H805.882H805.917H805.953H805.988H806.023H806.058H806.094H806.129H806.164H806.199H806.235H806.27H806.305H806.341H806.376H806.411H806.446H806.482H806.517H806.552H806.587H806.623H806.658H806.693H806.728H806.764H806.799H806.834H806.87H806.905H806.94H806.975H807.011H807.046H807.081H807.116H807.152H807.187H807.222H807.257H807.293H807.328H807.363H807.399H807.434H807.469H807.504H807.54H807.575H807.61H807.645H807.681H807.716H807.751H807.786H807.822H807.857H807.892H807.928H807.963H807.998H808.033H808.069H808.104H808.139H808.174H808.21H808.245H808.28H808.315H808.351H808.386H808.421H808.456H808.492H808.527H808.562H808.598H808.633H808.668H808.703H808.739H808.774H808.809H808.844H808.88H808.915H808.95H808.985H809.021H809.056H809.091H809.126H809.162H809.197H809.232H809.267H809.303H809.338H809.373H809.408H809.444H809.479H809.514H809.55H809.585H809.62H809.655H809.691H809.726H809.761H809.796H809.832H809.867H809.902H809.937H809.973H810.008H810.043H810.078H810.114H810.149H810.184H810.219H810.255H810.29H810.325H810.36H810.396H810.431H810.466H810.501H810.536H810.572H810.607H810.642H810.677H810.713H810.748H810.783H810.818H810.854H810.889H810.924H810.959H810.995H811.03H811.065H811.1H811.136H811.171H811.206H811.241H811.276H811.312H811.347H811.382H811.417H811.453H811.488H811.523H811.558H811.594H811.629H811.664H811.699H811.734H811.77H811.805H811.84H811.875H811.911H811.946H811.981H812.016H812.051H812.087H812.122H812.157H812.192H812.227H812.263H812.298H812.333H812.368H812.404H812.439H812.474H812.509H812.544H812.58H812.615H812.65H812.685H812.72H812.756H812.791H812.826H812.861H812.896H812.932H812.967H813.002H813.037H813.072H813.108H813.143H813.178H813.213H813.248H813.284H813.319H813.354H813.389H813.424H813.459H813.495H813.53H813.565H813.6H813.635H813.671H813.706H813.741H813.776H813.811H813.846H813.882H813.917H813.952H813.987H814.022H814.057H814.093H814.128H814.163H814.198H814.233H814.268H814.304H814.339H814.374H814.409H814.444H814.479H814.515H814.55H814.585H814.62H814.655H814.69H814.725H814.761H814.796H814.831H814.866H814.901H814.936H814.972H815.007H815.042H815.077H815.112H815.147H815.182H815.217H815.253H815.288H815.323H815.358H815.393H815.428H815.463H815.498H815.534H815.569H815.604H815.639H815.674H815.709H815.744H815.779H815.815H815.85H815.885H815.92H815.955H815.99H816.025H816.06H816.095H817.023L817.678 383.945L847.464 354.159L848.119 353.504V352.577V224.306V222.067H845.881H828.861H826.622V224.306V344.595L808.114 363.104H806.049L787.54 344.595V224.306Z" fill="#E5E5E5" stroke="#E5E5E5" stroke-width="4.47648"/>
<path d="M860.44 382.363V384.601H862.678H875.835H879.699H919.339H921.577V382.363V365.342V363.104H919.339H881.937V301.767L893.625 313.455L894.28 314.111H895.207H919.339H924.748L920.92 310.289L881.937 271.36V243.62H919.339H921.577V241.382V224.306V222.067H919.339H879.699H875.835H862.678H860.44V224.306V382.363Z" fill="#E5E5E5" stroke="#E5E5E5" stroke-width="4.47648"/>
<path d="M988.211 314.222H994.868H1000.52H1011.89H1014.13V311.984V294.964V254.091V253.164L1013.47 252.509L983.685 222.723L983.029 222.067H982.102H953.156H945.653H945.15H936.136H933.897V224.306V382.474V384.713H936.136H953.156H955.394V382.474V314.222H965.166L991.602 383.275L992.152 384.713H993.692H1011.94H1015.2L1014.03 381.674L988.211 314.222ZM992.63 292.725H955.394V243.62H974.121L992.63 262.129V292.725Z" fill="#E5E5E5" stroke="#E5E5E5" stroke-width="4.47648"/>
<path d="M1084.28 363.104H1028.74H1026.5V365.342V382.363V384.601H1028.74H1086.52H1103.54H1105.78V382.363V365.342V352.8V331.861V328.725V327.799L1105.13 327.143L1048.06 270.018V243.62H1065.77L1077.88 255.731L1078.54 256.386H1079.47H1103.54H1108.94L1105.13 252.567L1075.34 222.724L1074.68 222.067H1073.76H1029.64H1028.74H1026.5V224.306V253.924V274.584V277.999V278.926L1027.16 279.582L1084.28 336.707V363.104Z" fill="#E5E5E5" stroke="#E5E5E5" stroke-width="4.47648"/>
<path d="M1118.1 382.363V384.601H1120.34H1133.5H1137.36H1177H1179.24V382.363V365.342V363.104H1177H1139.6V301.767L1151.29 313.455L1151.94 314.111H1152.87H1177H1182.41L1178.58 310.289L1139.6 271.36V243.62H1177H1179.24V241.382V224.306V222.067H1177H1137.36H1133.5H1120.34H1118.1V224.306V382.363Z" fill="#E5E5E5" stroke="#E5E5E5" stroke-width="4.47648"/>
<path d="M315.759 221.331L317.82 219.27H323.894L325.954 221.331V234.183L323.894 236.244H317.82L315.759 234.183V221.331ZM324.49 222.849L323.324 220.978H318.579L317.467 222.09V229.872L324.49 222.849ZM323.487 234.536L324.327 232.177L323.812 225.967L317.305 232.665L318.389 234.536H323.487ZM329.316 221.331L331.377 219.27H337.451L339.512 221.331V234.183L337.451 236.244H331.377L329.316 234.183V221.331ZM338.047 222.849L336.881 220.978H332.136L331.025 222.09V229.872L338.047 222.849ZM337.044 234.536L337.885 232.177L337.37 225.967L330.862 232.665L331.947 234.536H337.044ZM342.874 221.331L344.935 219.27H351.008L353.069 221.331V226.401L345.097 234.536H353.069V236.244H342.874V234.02L351.442 225.642L350.927 221.412H345.016L344.501 225.208H342.874V221.331Z" fill="white" fill-opacity="0.3"/>
</svg>
