<svg width="20" height="16" viewBox="0 0 20 16" fill="none" xmlns="http://www.w3.org/2000/svg">
<path d="M16.5708 2.03374C15.3295 1.46989 14.0159 1.06906 12.6651 0.841797C12.4969 1.13792 12.2982 1.53774 12.1606 1.84867C10.724 1.64138 9.26358 1.64138 7.8269 1.84867C7.67472 1.50449 7.50376 1.16843 7.31478 0.841797C5.96177 1.07012 4.64586 1.47089 3.40142 2.03374C1.18755 5.14603 0.190395 8.92032 0.588736 12.6801C2.03537 13.736 3.65919 14.5425 5.38874 15.064C5.77914 14.5448 6.12426 13.995 6.42056 13.4204C5.85914 13.22 5.31691 12.9723 4.80017 12.6801C4.93777 12.5838 5.06767 12.4802 5.19762 12.3765C6.6938 13.0746 8.33309 13.4371 9.99377 13.4371C11.6545 13.4371 13.2938 13.0746 14.7899 12.3765C14.9199 12.4802 15.0498 12.5838 15.1874 12.6801C14.6722 12.9752 14.1297 13.223 13.567 13.4204C13.8578 13.9964 14.2005 14.5464 14.5912 15.064C16.322 14.5455 17.9464 13.7388 19.3912 12.6801C19.7927 8.91901 18.7924 5.14283 16.5708 2.03374ZM6.84088 10.5404C6.35964 10.5044 5.91205 10.2875 5.59359 9.9362C5.27514 9.58485 5.11111 9.12683 5.13647 8.65993C5.17908 8.3423 5.31537 8.04322 5.529 7.79872C5.74263 7.55415 6.02447 7.37442 6.34085 7.28109C6.65724 7.18781 6.99466 7.18479 7.31277 7.27249C7.63081 7.3602 7.91602 7.53489 8.13422 7.7756C8.35241 8.01637 8.49428 8.31291 8.54293 8.62977C8.59152 8.94663 8.54482 9.27036 8.40835 9.56209C8.27182 9.85389 8.05137 10.1014 7.77339 10.2749C7.49534 10.4484 7.17161 10.5406 6.84088 10.5404ZM13.139 10.5404C12.666 10.4828 12.231 10.26 11.9157 9.91374C11.6004 9.56749 11.4264 9.12168 11.4264 8.65993C11.4264 8.19824 11.6004 7.75237 11.9157 7.40612C12.231 7.05987 12.666 6.83706 13.139 6.77946C13.3791 6.79255 13.614 6.85187 13.8302 6.95386C14.0464 7.0559 14.2395 7.1986 14.3981 7.37365C14.5568 7.5487 14.6779 7.75255 14.7543 7.97341C14.8307 8.19427 14.8611 8.42763 14.8434 8.65993C14.8728 9.12778 14.7102 9.58787 14.3909 9.94011C14.0717 10.2923 13.6217 10.5081 13.139 10.5404Z" fill="white"/>
</svg>
