<svg width="18" height="16" viewBox="0 0 18 16" fill="none" xmlns="http://www.w3.org/2000/svg">
<path d="M16.0307 4.38199C16.0413 4.53559 16.0413 4.69061 16.0413 4.84563C16.0413 9.59177 12.4286 15.064 5.82277 15.064C3.86976 15.0668 1.95729 14.5068 0.314209 13.4511C0.597409 13.4849 0.882387 13.5019 1.1676 13.5023C2.78585 13.5047 4.35782 12.9621 5.63006 11.962C4.88055 11.9482 4.15409 11.7004 3.55243 11.2532C2.95083 10.8059 2.50408 10.1818 2.27486 9.46803C2.81288 9.57197 3.3676 9.55105 3.89625 9.40688C3.08357 9.24261 2.35273 8.80243 1.82751 8.16083C1.30236 7.51929 1.01519 6.71585 1.01471 5.88676V5.84125C1.51421 6.11929 2.0732 6.27342 2.64464 6.29067C1.8844 5.78276 1.34621 5.00415 1.13975 4.11348C0.933231 3.22276 1.07391 2.28682 1.53311 1.49618C2.4348 2.60563 3.55978 3.51307 4.83492 4.15959C6.11006 4.80605 7.50692 5.17719 8.93477 5.24883C8.75622 4.47899 8.83628 3.67177 9.16268 2.952C9.48908 2.23224 10.0436 1.64012 10.7403 1.2672C11.4371 0.894224 12.2374 0.761365 13.0173 0.88901C13.7973 1.01665 14.5134 1.39775 15.0549 1.97334C15.859 1.8147 16.6301 1.51982 17.3349 1.10151C17.0669 1.9331 16.5059 2.639 15.7562 3.08771C16.4679 3.00356 17.1631 2.81322 17.8185 2.52308C17.3374 3.24374 16.732 3.87313 16.0307 4.38199Z" fill="white"/>
</svg>
